<svg width="19" height="19" viewBox="0 0 19 19" fill="none" xmlns="http://www.w3.org/2000/svg">
<path d="M2.96876 10.0938H16.0313C16.3592 10.0938 16.625 9.82792 16.625 9.5C16.625 9.17208 16.3592 8.90625 16.0313 8.90625H2.96876C2.64084 8.90625 2.37501 9.17208 2.37501 9.5C2.37501 9.82792 2.64084 10.0938 2.96876 10.0938Z" fill="white"/>
<path d="M15.1916 9.5L10.2677 14.4239C10.1563 14.5353 10.0938 14.6863 10.0938 14.8438C10.0938 15.0012 10.1563 15.1522 10.2677 15.2636C10.379 15.3749 10.53 15.4375 10.6875 15.4375C10.845 15.4375 10.996 15.3749 11.1074 15.2636L16.4511 9.91984C16.683 9.68797 16.683 9.31203 16.4511 9.08016L11.1074 3.73641C10.996 3.62506 10.845 3.5625 10.6875 3.5625C10.53 3.5625 10.379 3.62506 10.2677 3.73641C10.1563 3.84776 10.0938 3.99878 10.0938 4.15625C10.0938 4.31372 10.1563 4.46474 10.2677 4.57609L15.1916 9.5Z" fill="white"/>
</svg>
